<svg id="Layer_1" data-name="Layer 1" xmlns="http://www.w3.org/2000/svg" viewBox="0 0 149.38 94.13"><defs><style>.cls-1{fill:#fff;}</style></defs><path class="cls-1" d="M97.58,30H57.28L64,16.86a27.4,27.4,0,0,1,3.2-5A31.33,31.33,0,0,1,92.35,0h.09c11.29,0,19.16,0,23.72,0h4.71V5h-4.71c-4.56,0-12.43,0-23.73,0h-.08C81.28,5,74.68,10.42,71.08,15A22.29,22.29,0,0,0,68.46,19l0,.09-3,5.88h29l2.12-4.51L101,22.62Z"/><path class="cls-1" d="M101.17,22.33l-4.53-2.12L98.15,17c.25-.52.5-1.11.78-1.76l.29-.69,4.6,2-.29.68c-.31.72-.59,1.38-.86,1.94Z"/><path class="cls-1" d="M104.07,15.93l-4.58-2c.19-.43.38-.87.6-1.31l4.49,2.19C104.39,15.18,104.23,15.57,104.07,15.93Z"/><path class="cls-1" d="M94.84,24.07l3.75-8.15H69.12v-5h31.81c2-3.76,6.79-10.7,18.14-10.91.35,0,.69,0,1,0C135.77.44,140,20.11,140.17,21l.61,3Zm10.27-10.35-1.31,2.8-1.14,2.53L134.4,19C132.75,14.15,128.53,5.22,119.93,5h-.73C110.89,5.15,107.26,9.58,105.11,13.72Z"/><path class="cls-1" d="M53.69,94.13h-.94c-11.89-.31-20-.23-24.39-.13a25.8,25.8,0,0,1-3.54.12H24.5v0C9.36,93.17,5.25,74,5.08,73.18l-.62-3,40.42-.1,2.79-6H88l-6.9,13.5-.2.36C73.25,91.21,62.06,94.13,53.69,94.13ZM40,88.91c3.64,0,7.91.09,12.84.21,6.88.16,12.73-1.8,17.45-5.91h-26A22.65,22.65,0,0,1,40,88.91ZM10.85,75.17c1.62,4.72,5.71,13.4,14,13.93.62,0,1.69-.07,3.22-.1,7.17-.78,10.33-5,12.33-9.12l1-2.21c.11-.24.21-.48.31-.72.3-.69.57-1.32.83-1.87Zm35.8,3H74.8c.6-.86,1.18-1.77,1.73-2.73l.35-.59,2.94-5.78h-29l-2.19,4.67Z"/><path class="cls-1" d="M12.09,38.75,10.3,42.24a5.53,5.53,0,0,0-1.39-.82,4.42,4.42,0,0,0-1.6-.31H7.06a1.27,1.27,0,0,0-.28.06,2.41,2.41,0,0,0-1,.46,1.19,1.19,0,0,0,0,1.81,4.13,4.13,0,0,0,.9.54l.35.12.34.11,1.15.32a8.37,8.37,0,0,1,3,1.59,3.92,3.92,0,0,1,1.23,3.16v.37A8,8,0,0,1,12.36,52,4.48,4.48,0,0,1,11,54a5.71,5.71,0,0,1-2,1.12,9.09,9.09,0,0,1-2.25.46l-.36,0H6.09a9.92,9.92,0,0,1-3.19-.52A10.91,10.91,0,0,1,0,53.61L1.93,50a9,9,0,0,0,1.85,1.29,4.56,4.56,0,0,0,2.15.53h.18a2.7,2.7,0,0,0,1.38-.48A1.41,1.41,0,0,0,8.11,50a1.26,1.26,0,0,0-.51-1,5,5,0,0,0-1.17-.62l-.55-.17-.5-.15-.11,0-.1,0a10,10,0,0,1-3.26-1.47C1.1,45.92.69,44.8.69,43.16a5.52,5.52,0,0,1,1.69-4.23,6,6,0,0,1,4.28-1.59,9.77,9.77,0,0,1,1.08.06,7.19,7.19,0,0,1,1.11.2,12.77,12.77,0,0,1,1.71.48,9.81,9.81,0,0,1,1.53.69Z"/><path class="cls-1" d="M31.35,55.11H26.84V41.6H23.12V37.78h12V41.6H31.35Z"/><path class="cls-1" d="M50.72,41.6v2.89H55.8v3.82H50.72v3h5.35v3.82H46.22V37.78h9.85V41.6Z"/><path class="cls-1" d="M72.87,41.6v2.89H78v3.82H72.87v3h5.36v3.82H68.37V37.78h9.86V41.6Z"/><path class="cls-1" d="M90.52,37.78h6.9A7.38,7.38,0,0,1,102,39.16a5.16,5.16,0,0,1,1.75,4.34,5.69,5.69,0,0,1-1.6,4.47,6.66,6.66,0,0,1-4.54,1.42H95v5.72H90.52ZM95,45.73h.76A7.91,7.91,0,0,0,98,45.49c.67-.18,1-.79,1-1.85s-.32-1.74-1-1.94a8,8,0,0,0-2.27-.29H95Z"/><path class="cls-1" d="M119.73,51.29h5.4v3.82h-9.9V37.78h4.5Z"/><path class="cls-1" d="M132.1,37.78h5.4l3.24,4.71L144,37.78h5.4l-6.39,9v8.32h-4.5V46.79Z"/></svg>